<?xml version="1.0" standalone="no"?>
<!DOCTYPE svg PUBLIC "-//W3C//DTD SVG 20010904//EN"
 "http://www.w3.org/TR/2001/REC-SVG-20010904/DTD/svg10.dtd">
<svg version="1.0" xmlns="http://www.w3.org/2000/svg"
 width="115.000000pt" height="115.000000pt" viewBox="0 0 115.000000 115.000000"
 preserveAspectRatio="xMidYMid meet">
<metadata>
Created by potrace 1.11, written by Peter Selinger 2001-2013
</metadata>
<g transform="translate(0.000000,115.000000) scale(0.100000,-0.100000)"
fill="#000000" stroke="none">
<path d="M492 1134 c-196 -51 -334 -285 -334 -563 1 -243 111 -455 277 -537
51 -25 71 -29 140 -29 103 1 174 32 250 109 48 50 116 165 130 221 21 82 37
177 31 182 -4 4 -42 8 -84 9 -42 1 -80 2 -84 3 -5 0 -8 32 -8 69 0 122 -47
209 -136 252 -85 42 -180 19 -243 -57 l-31 -38 0 39 c0 26 -4 36 -12 34 -14
-5 -24 -271 -13 -317 12 -46 24 -6 26 84 1 72 6 99 25 137 74 148 255 145 329
-5 20 -42 26 -71 28 -136 2 -48 7 -85 14 -89 6 -4 45 -7 86 -6 64 1 75 -1 72
-15 -1 -9 -6 -34 -9 -56 -22 -123 -91 -250 -171 -317 -66 -55 -115 -73 -200
-73 -67 0 -88 5 -130 27 -157 83 -257 279 -259 503 -1 180 50 326 152 437 124
133 283 151 421 47 28 -22 56 -39 61 -39 37 0 -42 73 -115 106 -63 29 -145 36
-213 18z"/>
<path d="M559 671 c-20 -16 -22 -23 -14 -47 18 -50 95 -42 95 10 0 47 -44 67
-81 37z"/>
</g>
</svg>
