<svg xmlns="http://www.w3.org/2000/svg" viewBox="0 0 27.66 56.67"><defs><style>.cls-1{fill:#516169;}</style></defs><title>Fichier 1</title><g id="Calque_2" data-name="Calque 2"><g id="Calque_1-2" data-name="Calque 1"><path class="cls-1" d="M13.82,56.67A20.38,20.38,0,0,1,.14,51.23a.4.4,0,1,1,.53-.6,19.63,19.63,0,0,0,13.15,5.23A19.6,19.6,0,0,0,27,50.61a.4.4,0,0,1,.57,0,.41.41,0,0,1,0,.57A20.43,20.43,0,0,1,13.82,56.67Z"/><path class="cls-1" d="M3.49,6.76,7,7.62,5.7,5.53l.36-.22L7.94,8.25,4.39,7.39,5.75,9.5l-.36.22Z"/><path class="cls-1" d="M9.49,7.51l-.39.15L7.91,4.51l.4-.14Z"/><path class="cls-1" d="M12.79,4a1.39,1.39,0,0,0-.93-.2,1.36,1.36,0,0,0-1.11,1.56,1.34,1.34,0,0,0,1.51,1.15,1.31,1.31,0,0,0,.83-.48l.08.49a1.87,1.87,0,0,1-.84.37,1.74,1.74,0,0,1-2-1.45,1.76,1.76,0,0,1,1.5-2,1.62,1.62,0,0,1,.87.1Z"/><path class="cls-1" d="M17.86,5.55A1.76,1.76,0,0,1,14.38,5a1.76,1.76,0,0,1,3.48.57Zm-.42-.07a1.34,1.34,0,1,0-2.65-.43,1.34,1.34,0,1,0,2.65.43Z"/><path class="cls-1" d="M19.13,7.5l.93.42-.15.35-1.32-.59L20,4.61l.38.17Z"/><path class="cls-1" d="M22.71,6l1.47,1L24,7.37l-1.14-.8-.54.77,1.11.77-.22.32-1.11-.77-.72,1,1.14.79-.22.32-1.48-1Z"/><path class="cls-1" d="M2,4.87a.4.4,0,0,1-.32-.17.39.39,0,0,1,.08-.56A20.13,20.13,0,0,1,13.88,0,20.21,20.21,0,0,1,26,4.12a.4.4,0,0,1,.08.57.39.39,0,0,1-.56.08,19.37,19.37,0,0,0-11.59-4,19.29,19.29,0,0,0-11.6,4A.41.41,0,0,1,2,4.87Z"/><path class="cls-1" d="M5.37,49.2l-.08.11a1.55,1.55,0,0,1-2.23.46A1.75,1.75,0,1,1,5.83,48.2l-.4.07A1.32,1.32,0,0,0,3,47.6a1.37,1.37,0,0,0,.31,1.87,1.13,1.13,0,0,0,1.47-.21l-.72-.49.22-.32Z"/><path class="cls-1" d="M9.6,51.17a1.76,1.76,0,0,1-3.24-1.39A1.76,1.76,0,0,1,9.6,51.17ZM9.21,51A1.34,1.34,0,1,0,6.75,50,1.34,1.34,0,1,0,9.21,51Z"/><path class="cls-1" d="M11.58,49.93l-.31,2c-.08.54,0,1.07.64,1.17s.88-.38,1-.92l.3-2,.42.07-.33,2.1A1.23,1.23,0,1,1,10.84,52l.33-2.09Z"/><path class="cls-1" d="M15.51,52.65l-.26.88-.44.07,1.1-3.69L18,53.15l-.44.06-.5-.78ZM16,50.81l-.41,1.43,1.19-.16Z"/><path class="cls-1" d="M18.58,49.37l.86,1.79c.24.49.61.88,1.19.6s.51-.81.27-1.31L20,48.67l.38-.19.93,1.92a1.23,1.23,0,1,1-2.22,1.07l-.93-1.92Z"/><path class="cls-1" d="M21.4,47.83l.54-.42a1.69,1.69,0,1,1,2,2.66l-.53.41Zm2.15,2.09.12-.09c.67-.52,1.06-1.23.46-2s-1.38-.57-2.05,0l-.12.09Z"/><path class="cls-1" d="M13.9,47.33C6.25,47.33,0,38.8,0,28.32s6.23-19,13.88-19a11.58,11.58,0,0,1,8.42,3.88.42.42,0,0,1,0,.58.41.41,0,0,1-.57,0,10.78,10.78,0,0,0-7.84-3.64C6.69,10.12.83,18.28.83,28.32s5.86,18.2,13.07,18.2c6.61,0,11.88-6.44,12.9-15.72H21.34a.41.41,0,0,1-.41-.41.4.4,0,0,1,.41-.4h5.91a.39.39,0,0,1,.3.13.39.39,0,0,1,.1.31C26.71,40.38,21.05,47.33,13.9,47.33Z"/><path class="cls-1" d="M21.34,30.8a.41.41,0,0,1-.41-.41V26.9c0-4.59-3.42-7.68-6.62-7.68S8.06,22.53,8.06,26a.41.41,0,1,1-.81,0c0-3.91,3.43-7.61,7.06-7.61s7.43,3.41,7.43,8.49v3.49A.41.41,0,0,1,21.34,30.8Z"/><path class="cls-1" d="M12.88,26.21a1.62,1.62,0,1,1,1.62,1.62A1.62,1.62,0,0,1,12.88,26.21Z"/><path class="cls-1" d="M7.65,30.9a.4.4,0,0,1-.4-.4V20.08a.41.41,0,1,1,.81,0V30.5A.4.4,0,0,1,7.65,30.9Z"/></g></g></svg>